<svg xmlns="http://www.w3.org/2000/svg" xmlns:xlink="http://www.w3.org/1999/xlink" version="1.1" x="0px" y="0px" viewBox="22 12 56.4 75" style="opacity: 0.4"><path d="M80.5,89.5h-61v-80h61V89.5z M20.5,88.5h59v-78h-59V88.5z"/><path d="M61,30H24V14h37V30z M25,29h35V15H25V29z"/><path d="M76,30H63V14h13V30z M64,29h11V15H64V29z"/><path d="M44,48H24V32h20V48z M25,47h18V33H25V47z"/><path d="M60,48H46V32h14V48z M47,47h12V33H47V47z"/><path d="M76,48H62V32h14V48z M63,47h12V33H63V47z"/><path d="M76,66H24V50h52V66z M25,65h50V51H25V65z"/><path d="M39,84H24V68h15V84z M25,83h13V69H25V83z"/><path d="M76,84H41V68h35V84z M42,83h33V69H42V83z"/></svg>